<?xml version="1.0" encoding="utf-8"?>
<!-- Generator: Adobe Illustrator 24.1.1, SVG Export Plug-In . SVG Version: 6.00 Build 0)  -->
<svg version="1.1" id="Layer_1" xmlns="http://www.w3.org/2000/svg" xmlns:xlink="http://www.w3.org/1999/xlink" x="0px" y="0px"
	 viewBox="0 0 512 512" style="enable-background:new 0 0 512 512;" xml:space="preserve">
<style type="text/css">
	.st0{fill:#231F20;}
</style>
<g>
	<path class="st0" d="M170.7,0H56.9C25.5,0,0,25.5,0,56.9v113.8c0,31.4,25.5,56.9,56.9,56.9h113.8c31.4,0,56.9-25.5,56.9-56.9V56.9
		C227.6,25.5,202.1,0,170.7,0z M56.9,170.7V56.9h113.8v113.8H56.9z"/>
	<path class="st0" d="M455.1,0H341.3c-31.4,0-56.9,25.5-56.9,56.9v113.8c0,31.4,25.5,56.9,56.9,56.9h113.8
		c31.4,0,56.9-25.5,56.9-56.9V56.9C512,25.5,486.5,0,455.1,0z M341.3,170.7V56.9h113.8v113.8H341.3z"/>
	<path class="st0" d="M170.7,284.4H56.9C25.5,284.4,0,309.9,0,341.3v113.8C0,486.5,25.5,512,56.9,512h113.8
		c31.4,0,56.9-25.5,56.9-56.9V341.3C227.6,309.9,202.1,284.4,170.7,284.4z M56.9,455.1V341.3h113.8v113.8H56.9z"/>
	<path class="st0" d="M455.1,284.4H341.3c-31.4,0-56.9,25.5-56.9,56.9v113.8c0,31.4,25.5,56.9,56.9,56.9h113.8
		c31.4,0,56.9-25.5,56.9-56.9V341.3C512,309.9,486.5,284.4,455.1,284.4z M341.3,455.1V341.3h113.8v113.8H341.3z"/>
</g>
</svg>
